<?xml version="1.0" encoding="UTF-8"?>
<svg xmlns="http://www.w3.org/2000/svg" viewBox="0 0 1280 400" preserveAspectRatio="xMidYMid meet" role="img" aria-label="Career operating-mode diagram showing six eras from 2017 to 2026, progressing from student to employee to remote contractor to in-house operator to founder, with locations across Wellington, Auckland, Barcelona, Melbourne, New York, and Medellín.">
  <style>
    /* Standalone styles — when this SVG is inlined into index.html,
       these are duplicated by styles.css and the page tokens take
       over. Kept here so the file renders correctly on its own. */
    .cd-svg-bg   { fill: #FBF6EC; }
    .cd-eyb      { font-family: Inter, -apple-system, sans-serif; font-size: 11px; font-weight: 600; fill: #6B6B6B; letter-spacing: 0.18em; font-feature-settings: "tnum" on, "lnum" on; }
    .cd-eyb-rule { stroke: #E8DEC9; stroke-width: 1; fill: none; }
    .cd-band     { stroke: #E8DEC9; stroke-width: 0.5; fill: none; }
    .cd-mode     { font-family: Inter, -apple-system, sans-serif; font-size: 11px; font-weight: 500; fill: #6B6B6B; letter-spacing: -0.005em; }
    .cd-axis-rule{ stroke: #D9CDB1; stroke-width: 1; fill: none; }
    .cd-tick     { stroke: #1A1A1A; stroke-width: 1; }
    .cd-year     { font-family: Inter, -apple-system, sans-serif; font-size: 11px; font-weight: 400; fill: #6B6B6B; font-feature-settings: "tnum" on, "lnum" on; }
    .cd-era      { stroke: #1A1A1A; stroke-width: 1.2; fill: #FBF6EC; }
    .cd-trans    { stroke: #1A1A1A; stroke-width: 1.2; fill: none; }
    .cd-ongoing  { stroke: #1A1A1A; stroke-width: 1.2; stroke-dasharray: 3 3; fill: none; }
    .cd-annot    { font-family: Inter, -apple-system, sans-serif; font-size: 11px; font-weight: 500; fill: #1A1A1A; font-feature-settings: "tnum" on, "lnum" on; letter-spacing: 0.005em; }
    .cd-mde-dot  { fill: #6B6B6B; }
    .cd-mde-leader { stroke: #6B6B6B; stroke-width: 0.5; fill: none; }
    .cd-mde-text { font-family: Inter, -apple-system, sans-serif; font-size: 10px; font-style: italic; fill: #6B6B6B; }
  </style>
  <rect class="cd-svg-bg" x="0" y="0" width="1280" height="400"/>

  <!-- EYEBROW -->
  <text class="cd-eyb" x="64" y="36">CAREER OPERATING MODE &#183; 2017&#8211;2026</text>
  <line class="cd-eyb-rule" x1="64" y1="50" x2="1262" y2="50"/>

  <!-- MODE BAND LINES -->
  <line class="cd-band" x1="140" y1="104" x2="1262" y2="104"/>
  <line class="cd-band" x1="140" y1="152" x2="1262" y2="152"/>
  <line class="cd-band" x1="140" y1="200" x2="1262" y2="200"/>
  <line class="cd-band" x1="140" y1="248" x2="1262" y2="248"/>
  <line class="cd-band" x1="140" y1="296" x2="1262" y2="296"/>

  <!-- MODE LABELS -->
  <text class="cd-mode" x="126" y="108" text-anchor="end">Founder</text>
  <text class="cd-mode" x="126" y="156" text-anchor="end">In-house operator</text>
  <text class="cd-mode" x="126" y="204" text-anchor="end">Remote contractor</text>
  <text class="cd-mode" x="126" y="252" text-anchor="end">Employee</text>
  <text class="cd-mode" x="126" y="300" text-anchor="end">Student</text>

  <!-- AXIS -->
  <line class="cd-axis-rule" x1="140" y1="320" x2="1262" y2="320"/>
  <line class="cd-tick" x1="140"  y1="320" x2="140"  y2="326"/>
  <line class="cd-tick" x1="260"  y1="320" x2="260"  y2="326"/>
  <line class="cd-tick" x1="380"  y1="320" x2="380"  y2="326"/>
  <line class="cd-tick" x1="500"  y1="320" x2="500"  y2="326"/>
  <line class="cd-tick" x1="620"  y1="320" x2="620"  y2="326"/>
  <line class="cd-tick" x1="740"  y1="320" x2="740"  y2="326"/>
  <line class="cd-tick" x1="860"  y1="320" x2="860"  y2="326"/>
  <line class="cd-tick" x1="980"  y1="320" x2="980"  y2="326"/>
  <line class="cd-tick" x1="1100" y1="320" x2="1100" y2="326"/>
  <line class="cd-tick" x1="1220" y1="320" x2="1220" y2="326"/>
  <text class="cd-year" x="140"  y="340" text-anchor="middle">2017</text>
  <text class="cd-year" x="260"  y="340" text-anchor="middle">2018</text>
  <text class="cd-year" x="380"  y="340" text-anchor="middle">2019</text>
  <text class="cd-year" x="500"  y="340" text-anchor="middle">2020</text>
  <text class="cd-year" x="620"  y="340" text-anchor="middle">2021</text>
  <text class="cd-year" x="740"  y="340" text-anchor="middle">2022</text>
  <text class="cd-year" x="860"  y="340" text-anchor="middle">2023</text>
  <text class="cd-year" x="980"  y="340" text-anchor="middle">2024</text>
  <text class="cd-year" x="1100" y="340" text-anchor="middle">2025</text>
  <text class="cd-year" x="1220" y="340" text-anchor="middle">2026</text>

  <!-- ERA BLOCKS -->
  <rect class="cd-era" x="140"  y="283" width="360" height="26"/>
  <rect class="cd-era" x="500"  y="235" width="240" height="26"/>
  <rect class="cd-era" x="740"  y="187" width="120" height="26"/>
  <rect class="cd-era" x="860"  y="139" width="240" height="26"/>
  <rect class="cd-era" x="1100" y="91"  width="120" height="26"/>
  <rect class="cd-era" x="1224" y="91"  width="38"  height="26"/>
  <line class="cd-ongoing" x1="1264" y1="104" x2="1278" y2="104"/>

  <!-- TRANSITIONS -->
  <line class="cd-trans" x1="500"  y1="283" x2="500"  y2="261"/>
  <line class="cd-trans" x1="740"  y1="235" x2="740"  y2="213"/>
  <line class="cd-trans" x1="860"  y1="187" x2="860"  y2="165"/>
  <line class="cd-trans" x1="1100" y1="139" x2="1100" y2="117"/>

  <!-- ANNOTATIONS -->
  <text class="cd-annot" x="148"  y="300">WLG &#183; NZD &#183; VUW</text>
  <text class="cd-annot" x="508"  y="252">AKL &#183; NZD &#183; BDO</text>
  <text class="cd-annot" x="748"  y="204">BCN &#183; NZD &#183; BDO</text>
  <text class="cd-annot" x="868"  y="156">MEL &#183; AUD &#183; law firm</text>
  <text class="cd-annot" x="1108" y="108" textLength="108" lengthAdjust="spacingAndGlyphs">NYC &#183; USD &#183; founded</text>
  <text class="cd-annot" x="1262" y="85"  text-anchor="end">MEL/MDE &#183; AUD/USD</text>

  <!-- MEDELLÍN ANNOTATION -->
  <circle class="cd-mde-dot" cx="260" cy="356" r="2"/>
  <line class="cd-mde-leader" x1="260" y1="358" x2="260" y2="365"/>
  <text class="cd-mde-text" x="268" y="370">Medell&#237;n exchange &#183; Spanish acquisition begins</text>
</svg>
